<svg width="800" height="200" viewBox="0 0 800 200" xmlns="http://www.w3.org/2000/svg"><mask id="satori_om-id"><rect x="0" y="0" width="800" height="200" fill="#fff"/></mask><rect x="0" y="0" width="800" height="200" fill="#fff"/><mask id="satori_om-id-0"><rect x="0" y="8" width="800" height="184" fill="#fff"/></mask><mask id="satori_om-id-0-0"><rect x="0" y="8" width="800" height="184" fill="#fff"/></mask><mask id="satori_om-id-0-0-0"><rect x="32" y="60" width="357" height="80" fill="#fff"/></mask><mask id="satori_om-id-0-0-0-0"><rect x="32" y="60" width="357" height="40" fill="#fff"/></mask><path fill="#111827" d="M51.0 93.1L34.3 93.1L34.3 66.9L39.8 66.9L39.8 88.5L51.0 88.5L51.0 93.1ZM62.6 93.5L62.6 93.5Q59.6 93.5 57.4 92.2Q55.3 90.9 54.1 88.6Q52.9 86.4 52.9 83.3L52.9 83.3Q52.9 80.3 54.1 78.0Q55.3 75.7 57.4 74.5Q59.6 73.2 62.6 73.2L62.6 73.2Q65.6 73.2 67.7 74.5Q69.9 75.7 71.1 78.0Q72.2 80.3 72.2 83.3L72.2 83.3Q72.2 86.4 71.1 88.6Q69.9 90.9 67.7 92.2Q65.6 93.5 62.6 93.5ZM62.6 89.3L62.6 89.3Q64.0 89.3 64.9 88.5Q65.8 87.7 66.2 86.4Q66.7 85.0 66.7 83.3L66.7 83.3Q66.7 81.6 66.2 80.3Q65.8 78.9 64.9 78.1Q64.0 77.4 62.6 77.4L62.6 77.4Q61.2 77.4 60.3 78.1Q59.4 78.9 58.9 80.3Q58.4 81.6 58.4 83.3L58.4 83.3Q58.4 85.0 58.9 86.4Q59.4 87.7 60.3 88.5Q61.2 89.3 62.6 89.3ZM83.8 93.5L83.8 93.5Q80.7 93.5 78.6 92.2Q76.4 90.9 75.3 88.6Q74.1 86.3 74.1 83.3L74.1 83.3Q74.1 80.3 75.3 78.1Q76.4 75.8 78.6 74.5Q80.8 73.2 83.7 73.2L83.7 73.2Q86.3 73.2 88.2 74.1Q90.2 75.1 91.3 76.8Q92.4 78.4 92.5 80.7L92.5 80.7L87.4 80.7Q87.2 79.2 86.3 78.3Q85.3 77.4 83.8 77.4L83.8 77.4Q82.6 77.4 81.6 78.1Q80.7 78.8 80.2 80.1Q79.6 81.4 79.6 83.3L79.6 83.3Q79.6 85.2 80.2 86.5Q80.7 87.8 81.6 88.5Q82.6 89.2 83.8 89.2L83.8 89.2Q84.8 89.2 85.5 88.8Q86.3 88.4 86.8 87.7Q87.2 86.9 87.4 85.9L87.4 85.9L92.5 85.9Q92.4 88.1 91.3 89.9Q90.2 91.6 88.3 92.5Q86.4 93.5 83.8 93.5ZM100.7 93.5L100.7 93.5Q98.9 93.5 97.4 92.8Q95.9 92.1 95.1 90.8Q94.2 89.5 94.2 87.6L94.2 87.6Q94.2 86.0 94.8 84.9Q95.4 83.7 96.5 83.1Q97.5 82.4 98.8 82.0Q100.1 81.7 101.6 81.6L101.6 81.6Q103.3 81.4 104.4 81.2Q105.4 81.1 105.9 80.7Q106.3 80.4 106.3 79.8L106.3 79.8L106.3 79.7Q106.3 78.5 105.6 77.8Q104.8 77.2 103.4 77.2L103.4 77.2Q102.0 77.2 101.1 77.8Q100.2 78.5 99.9 79.4L99.9 79.4L94.9 79.0Q95.3 77.2 96.4 75.9Q97.5 74.6 99.3 73.9Q101.1 73.2 103.5 73.2L103.5 73.2Q105.1 73.2 106.6 73.6Q108.1 74.0 109.3 74.8Q110.4 75.6 111.1 76.8Q111.8 78.1 111.8 79.8L111.8 79.8L111.8 93.1L106.6 93.1L106.6 90.4L106.5 90.4Q106.0 91.3 105.2 92.0Q104.4 92.7 103.3 93.1Q102.2 93.5 100.7 93.5ZM102.3 89.7L102.3 89.7Q103.5 89.7 104.4 89.2Q105.3 88.7 105.9 87.9Q106.4 87.1 106.4 86.1L106.4 86.1L106.4 84.0Q106.1 84.2 105.7 84.3Q105.3 84.4 104.7 84.5Q104.2 84.6 103.6 84.7Q103.1 84.8 102.6 84.9L102.6 84.9Q101.6 85.0 100.9 85.3Q100.2 85.6 99.8 86.1Q99.4 86.7 99.4 87.4L99.4 87.4Q99.4 88.5 100.2 89.1Q101.0 89.7 102.3 89.7ZM115.1 66.9L120.6 66.9L120.6 93.1L115.1 93.1L115.1 66.9ZM133.0 93.5L133.0 93.5Q129.9 93.5 127.8 92.2Q125.6 91.0 124.4 88.7Q123.2 86.5 123.2 83.4L123.2 83.4Q123.2 80.3 124.4 78.0Q125.6 75.8 127.7 74.5Q129.9 73.2 132.8 73.2L132.8 73.2Q134.7 73.2 136.4 73.8Q138.1 74.4 139.3 75.7Q140.6 76.9 141.3 78.8Q142.0 80.7 142.0 83.2L142.0 83.2L142.0 84.7L125.4 84.7L125.4 81.3L136.9 81.3Q136.9 80.1 136.3 79.2Q135.8 78.3 134.9 77.8Q134.0 77.3 132.8 77.3L132.8 77.3Q131.6 77.3 130.6 77.8Q129.7 78.4 129.2 79.4Q128.6 80.3 128.6 81.5L128.6 81.5L128.6 84.7Q128.6 86.1 129.2 87.2Q129.7 88.3 130.7 88.8Q131.7 89.4 133.1 89.4L133.1 89.4Q134.0 89.4 134.7 89.2Q135.5 88.9 136.0 88.4Q136.5 87.9 136.8 87.1L136.8 87.1L141.9 87.5Q141.5 89.3 140.3 90.6Q139.1 92.0 137.3 92.7Q135.4 93.5 133.0 93.5ZM161.5 93.1L144.7 93.1L144.7 66.9L150.3 66.9L150.3 88.5L161.5 88.5L161.5 93.1ZM173.0 93.5L173.0 93.5Q170.1 93.5 167.9 92.2Q165.7 90.9 164.5 88.6Q163.4 86.4 163.4 83.3L163.4 83.3Q163.4 80.3 164.5 78.0Q165.7 75.7 167.9 74.5Q170.1 73.2 173.0 73.2L173.0 73.2Q176.0 73.2 178.2 74.5Q180.3 75.7 181.5 78.0Q182.7 80.3 182.7 83.3L182.7 83.3Q182.7 86.4 181.5 88.6Q180.3 90.9 178.2 92.2Q176.0 93.5 173.0 93.5ZM173.1 89.3L173.1 89.3Q174.4 89.3 175.3 88.5Q176.2 87.7 176.7 86.4Q177.2 85.0 177.2 83.3L177.2 83.3Q177.2 81.6 176.7 80.3Q176.2 78.9 175.3 78.1Q174.4 77.4 173.1 77.4L173.1 77.4Q171.7 77.4 170.8 78.1Q169.8 78.9 169.4 80.3Q168.9 81.6 168.9 83.3L168.9 83.3Q168.9 85.0 169.4 86.4Q169.8 87.7 170.8 88.5Q171.7 89.3 173.1 89.3ZM194.2 93.5L194.2 93.5Q191.2 93.5 189.1 92.2Q186.9 90.9 185.7 88.6Q184.6 86.4 184.6 83.3L184.6 83.3Q184.6 80.3 185.7 78.0Q186.9 75.7 189.1 74.5Q191.2 73.2 194.2 73.2L194.2 73.2Q197.2 73.2 199.4 74.5Q201.5 75.7 202.7 78.0Q203.9 80.3 203.9 83.3L203.9 83.3Q203.9 86.4 202.7 88.6Q201.5 90.9 199.4 92.2Q197.2 93.5 194.2 93.5ZM194.3 89.3L194.3 89.3Q195.6 89.3 196.5 88.5Q197.4 87.7 197.9 86.4Q198.4 85.0 198.4 83.3L198.4 83.3Q198.4 81.6 197.9 80.3Q197.4 78.9 196.5 78.1Q195.6 77.4 194.3 77.4L194.3 77.4Q192.9 77.4 192.0 78.1Q191.0 78.9 190.6 80.3Q190.1 81.6 190.1 83.3L190.1 83.3Q190.1 85.0 190.6 86.4Q191.0 87.7 192.0 88.5Q192.9 89.3 194.3 89.3ZM212.0 93.1L206.5 93.1L206.5 73.5L211.7 73.5L211.7 76.9L212.0 76.9Q212.6 75.2 214.0 74.2Q215.4 73.2 217.4 73.2L217.4 73.2Q219.5 73.2 220.9 74.2Q222.3 75.2 222.8 76.9L222.8 76.9L223.0 76.9Q223.6 75.2 225.2 74.2Q226.7 73.2 228.9 73.2L228.9 73.2Q231.6 73.2 233.4 74.9Q235.1 76.7 235.1 79.9L235.1 79.9L235.1 93.1L229.6 93.1L229.6 81.0Q229.6 79.3 228.8 78.5Q227.9 77.7 226.6 77.7L226.6 77.7Q225.1 77.7 224.3 78.6Q223.5 79.6 223.5 81.1L223.5 81.1L223.5 93.1L218.2 93.1L218.2 80.8Q218.2 79.4 217.4 78.5Q216.5 77.7 215.2 77.7L215.2 77.7Q214.3 77.7 213.6 78.1Q212.8 78.6 212.4 79.4Q212.0 80.2 212.0 81.3L212.0 81.3L212.0 93.1Z "/><mask id="satori_om-id-0-0-0-1"><rect x="32" y="100" width="357" height="40" fill="#fff"/></mask><path fill="#0969da" d="M32.8 113.5L44.6 113.5L44.6 117.5L32.8 117.5L32.8 113.5ZM35.5 127.8L35.5 108.8L40.9 108.8L40.9 127.1Q40.9 127.8 41.2 128.2Q41.4 128.6 41.8 128.8Q42.2 129.0 42.8 129.0L42.8 129.0Q43.1 129.0 43.5 128.9Q43.9 128.8 44.1 128.8L44.1 128.8L45.0 132.8Q44.6 133.0 43.8 133.1Q43.1 133.3 42.0 133.4L42.0 133.4Q40.1 133.4 38.6 132.8Q37.1 132.2 36.3 131.0Q35.5 129.7 35.5 127.8L35.5 127.8ZM53.1 121.7L53.1 121.7L53.1 133.1L47.7 133.1L47.7 106.9L53.0 106.9L53.0 116.9L53.2 116.9Q53.9 115.2 55.3 114.2Q56.8 113.2 59.1 113.2L59.1 113.2Q61.1 113.2 62.6 114.1Q64.2 115.0 65.0 116.6Q65.9 118.3 65.8 120.6L65.8 120.6L65.8 133.1L60.4 133.1L60.4 121.6Q60.4 119.7 59.5 118.7Q58.6 117.7 56.9 117.7L56.9 117.7Q55.8 117.7 54.9 118.2Q54.1 118.7 53.6 119.6Q53.1 120.5 53.1 121.7ZM74.7 133.1L69.2 133.1L69.2 113.5L74.5 113.5L74.5 116.9L74.7 116.9Q75.3 115.1 76.5 114.1Q77.8 113.2 79.4 113.2L79.4 113.2Q79.9 113.2 80.3 113.2Q80.8 113.3 81.2 113.4L81.2 113.4L81.2 118.2Q80.8 118.1 80.1 118.0Q79.4 117.9 78.9 117.9L78.9 117.9Q77.7 117.9 76.7 118.4Q75.8 118.9 75.2 119.9Q74.7 120.8 74.7 122.0L74.7 122.0L74.7 133.1ZM91.1 133.5L91.1 133.5Q88.1 133.5 85.9 132.2Q83.7 131.0 82.5 128.7Q81.3 126.5 81.3 123.4L81.3 123.4Q81.3 120.3 82.5 118.0Q83.7 115.8 85.8 114.5Q88.0 113.2 90.9 113.2L90.9 113.2Q92.8 113.2 94.5 113.8Q96.2 114.4 97.4 115.7Q98.7 116.9 99.4 118.8Q100.1 120.7 100.1 123.2L100.1 123.2L100.1 124.7L83.5 124.7L83.5 121.3L95.0 121.3Q95.0 120.1 94.5 119.2Q93.9 118.3 93.0 117.8Q92.1 117.3 91.0 117.3L91.0 117.3Q89.7 117.3 88.8 117.8Q87.8 118.4 87.3 119.4Q86.7 120.3 86.7 121.5L86.7 121.5L86.7 124.7Q86.7 126.1 87.3 127.2Q87.8 128.3 88.8 128.8Q89.8 129.4 91.2 129.4L91.2 129.4Q92.1 129.4 92.8 129.2Q93.6 128.9 94.1 128.4Q94.7 127.9 94.9 127.1L94.9 127.1L100.0 127.5Q99.6 129.3 98.4 130.6Q97.2 132.0 95.4 132.7Q93.5 133.5 91.1 133.5ZM108.4 133.5L108.4 133.5Q106.5 133.5 105.0 132.8Q103.5 132.1 102.7 130.8Q101.8 129.5 101.8 127.6L101.8 127.6Q101.8 126.0 102.4 124.9Q103.0 123.7 104.1 123.1Q105.1 122.4 106.4 122.0Q107.8 121.7 109.2 121.6L109.2 121.6Q110.9 121.4 112.0 121.2Q113.0 121.1 113.5 120.7Q114.0 120.4 114.0 119.8L114.0 119.8L114.0 119.7Q114.0 118.5 113.2 117.8Q112.4 117.2 111.0 117.2L111.0 117.2Q109.6 117.2 108.7 117.8Q107.8 118.5 107.6 119.4L107.6 119.4L102.5 119.0Q102.9 117.2 104.0 115.9Q105.2 114.6 106.9 113.9Q108.7 113.2 111.1 113.2L111.1 113.2Q112.7 113.2 114.2 113.6Q115.7 114.0 116.9 114.8Q118.1 115.6 118.7 116.8Q119.4 118.1 119.4 119.8L119.4 119.8L119.4 133.1L114.2 133.1L114.2 130.4L114.1 130.4Q113.6 131.3 112.8 132.0Q112.0 132.7 110.9 133.1Q109.8 133.5 108.4 133.5ZM109.9 129.7L109.9 129.7Q111.1 129.7 112.0 129.2Q113.0 128.7 113.5 127.9Q114.0 127.1 114.0 126.1L114.0 126.1L114.0 124.0Q113.7 124.2 113.3 124.3Q112.9 124.4 112.3 124.5Q111.8 124.6 111.2 124.7Q110.7 124.8 110.2 124.9L110.2 124.9Q109.3 125.0 108.5 125.3Q107.8 125.6 107.4 126.1Q107.0 126.7 107.0 127.4L107.0 127.4Q107.0 128.5 107.8 129.1Q108.7 129.7 109.9 129.7ZM130.0 133.4L130.0 133.4Q127.7 133.4 125.9 132.3Q124.1 131.1 123.1 128.8Q122.0 126.6 122.0 123.3L122.0 123.3Q122.0 119.9 123.1 117.7Q124.2 115.4 126.0 114.3Q127.8 113.2 130.0 113.2L130.0 113.2Q131.6 113.2 132.7 113.8Q133.8 114.3 134.5 115.1Q135.2 116.0 135.6 116.8L135.6 116.8L135.7 116.8L135.7 106.9L141.2 106.9L141.2 133.1L135.8 133.1L135.8 129.9L135.6 129.9Q135.2 130.8 134.5 131.6Q133.8 132.4 132.7 132.9Q131.6 133.4 130.0 133.4ZM131.7 129.1L131.7 129.1Q133.0 129.1 133.9 128.4Q134.8 127.6 135.3 126.3Q135.8 125.0 135.8 123.3L135.8 123.3Q135.8 121.5 135.3 120.2Q134.9 118.9 133.9 118.2Q133.0 117.5 131.7 117.5L131.7 117.5Q130.4 117.5 129.4 118.3Q128.5 119.0 128.0 120.3Q127.6 121.6 127.6 123.3L127.6 123.3Q127.6 125.0 128.1 126.3Q128.5 127.6 129.4 128.3Q130.4 129.1 131.7 129.1ZM161.1 119.1L161.1 119.1L156.1 119.4Q155.9 118.7 155.5 118.2Q155.1 117.7 154.4 117.4Q153.7 117.1 152.8 117.1L152.8 117.1Q151.5 117.1 150.6 117.6Q149.8 118.1 149.8 119.0L149.8 119.0Q149.8 119.7 150.3 120.2Q150.9 120.7 152.3 121.0L152.3 121.0L155.8 121.7Q158.7 122.3 160.1 123.6Q161.5 124.9 161.5 127.0L161.5 127.0Q161.5 128.9 160.4 130.4Q159.2 131.9 157.3 132.7Q155.3 133.5 152.8 133.5L152.8 133.5Q148.9 133.5 146.5 131.8Q144.2 130.2 143.8 127.4L143.8 127.4L149.2 127.1Q149.4 128.3 150.4 128.9Q151.3 129.5 152.8 129.5L152.8 129.5Q154.2 129.5 155.1 129.0Q155.9 128.4 156.0 127.6L156.0 127.6Q155.9 126.8 155.3 126.3Q154.7 125.9 153.4 125.6L153.4 125.6L150.0 124.9Q147.2 124.3 145.8 122.9Q144.4 121.5 144.4 119.3L144.4 119.3Q144.4 117.4 145.4 116.0Q146.4 114.7 148.3 113.9Q150.2 113.2 152.7 113.2L152.7 113.2Q156.4 113.2 158.6 114.8Q160.7 116.3 161.1 119.1Z M180.9 133.5L180.9 133.5Q177.9 133.5 175.7 132.2Q173.6 130.9 172.4 128.6Q171.2 126.4 171.2 123.3L171.2 123.3Q171.2 120.3 172.4 118.0Q173.6 115.7 175.7 114.5Q177.9 113.2 180.9 113.2L180.9 113.2Q183.8 113.2 186.0 114.5Q188.2 115.7 189.4 118.0Q190.5 120.3 190.5 123.3L190.5 123.3Q190.5 126.4 189.4 128.6Q188.2 130.9 186.0 132.2Q183.8 133.5 180.9 133.5ZM180.9 129.3L180.9 129.3Q182.2 129.3 183.2 128.5Q184.1 127.7 184.5 126.4Q185.0 125.0 185.0 123.3L185.0 123.3Q185.0 121.6 184.5 120.3Q184.1 118.9 183.2 118.1Q182.2 117.4 180.9 117.4L180.9 117.4Q179.5 117.4 178.6 118.1Q177.7 118.9 177.2 120.3Q176.7 121.6 176.7 123.3L176.7 123.3Q176.7 125.0 177.2 126.4Q177.7 127.7 178.6 128.5Q179.5 129.3 180.9 129.3ZM191.6 113.5L203.7 113.5L203.7 117.5L191.6 117.5L191.6 113.5ZM199.8 133.1L194.4 133.1L194.4 112.0Q194.4 109.9 195.2 108.5Q196.1 107.1 197.5 106.4Q199.0 105.7 200.8 105.7L200.8 105.7Q202.1 105.7 203.1 105.9Q204.2 106.1 204.7 106.2L204.7 106.2L203.7 110.3Q203.4 110.2 202.9 110.1Q202.5 110.0 202.0 110.0L202.0 110.0Q200.8 110.0 200.3 110.6Q199.8 111.1 199.8 112.1L199.8 112.1L199.8 133.1Z M213.6 106.9L219.1 106.9L219.1 133.1L213.6 133.1L213.6 106.9ZM231.4 133.5L231.4 133.5Q228.4 133.5 226.2 132.2Q224.1 130.9 222.9 128.6Q221.7 126.4 221.7 123.3L221.7 123.3Q221.7 120.3 222.9 118.0Q224.1 115.7 226.2 114.5Q228.4 113.2 231.4 113.2L231.4 113.2Q234.4 113.2 236.5 114.5Q238.7 115.7 239.9 118.0Q241.0 120.3 241.0 123.3L241.0 123.3Q241.0 126.4 239.9 128.6Q238.7 130.9 236.5 132.2Q234.4 133.5 231.4 133.5ZM231.4 129.3L231.4 129.3Q232.8 129.3 233.7 128.5Q234.6 127.7 235.0 126.4Q235.5 125.0 235.5 123.3L235.5 123.3Q235.5 121.6 235.0 120.3Q234.6 118.9 233.7 118.1Q232.8 117.4 231.4 117.4L231.4 117.4Q230.0 117.4 229.1 118.1Q228.2 118.9 227.7 120.3Q227.3 121.6 227.3 123.3L227.3 123.3Q227.3 125.0 227.7 126.4Q228.2 127.7 229.1 128.5Q230.0 129.3 231.4 129.3ZM252.6 133.5L252.6 133.5Q249.6 133.5 247.4 132.2Q245.2 130.9 244.1 128.6Q242.9 126.3 242.9 123.3L242.9 123.3Q242.9 120.3 244.1 118.1Q245.2 115.8 247.4 114.5Q249.6 113.2 252.5 113.2L252.5 113.2Q255.1 113.2 257.0 114.1Q259.0 115.1 260.1 116.8Q261.2 118.4 261.3 120.7L261.3 120.7L256.2 120.7Q256.0 119.2 255.1 118.3Q254.1 117.4 252.6 117.4L252.6 117.4Q251.4 117.4 250.4 118.1Q249.5 118.8 249.0 120.1Q248.4 121.4 248.4 123.3L248.4 123.3Q248.4 125.2 249.0 126.5Q249.5 127.8 250.4 128.5Q251.4 129.2 252.6 129.2L252.6 129.2Q253.6 129.2 254.3 128.8Q255.1 128.4 255.6 127.7Q256.1 126.9 256.2 125.9L256.2 125.9L261.3 125.9Q261.2 128.1 260.1 129.9Q259.0 131.6 257.1 132.5Q255.2 133.5 252.6 133.5ZM269.5 133.5L269.5 133.5Q267.7 133.5 266.2 132.8Q264.7 132.1 263.9 130.8Q263.0 129.5 263.0 127.6L263.0 127.6Q263.0 126.0 263.6 124.9Q264.2 123.7 265.3 123.1Q266.3 122.4 267.6 122.0Q268.9 121.7 270.4 121.6L270.4 121.6Q272.1 121.4 273.2 121.2Q274.2 121.1 274.7 120.7Q275.2 120.4 275.2 119.8L275.2 119.8L275.2 119.7Q275.2 118.5 274.4 117.8Q273.6 117.2 272.2 117.2L272.2 117.2Q270.8 117.2 269.9 117.8Q269.0 118.5 268.8 119.4L268.8 119.4L263.7 119.0Q264.1 117.2 265.2 115.9Q266.4 114.6 268.1 113.9Q269.9 113.2 272.3 113.2L272.3 113.2Q273.9 113.2 275.4 113.6Q276.9 114.0 278.1 114.8Q279.2 115.6 279.9 116.8Q280.6 118.1 280.6 119.8L280.6 119.8L280.6 133.1L275.4 133.1L275.4 130.4L275.3 130.4Q274.8 131.3 274.0 132.0Q273.2 132.7 272.1 133.1Q271.0 133.5 269.5 133.5ZM271.1 129.7L271.1 129.7Q272.3 129.7 273.2 129.2Q274.1 128.7 274.7 127.9Q275.2 127.1 275.2 126.1L275.2 126.1L275.2 124.0Q274.9 124.2 274.5 124.3Q274.1 124.4 273.5 124.5Q273.0 124.6 272.4 124.7Q271.9 124.8 271.4 124.9L271.4 124.9Q270.5 125.0 269.7 125.3Q269.0 125.6 268.6 126.1Q268.2 126.7 268.2 127.4L268.2 127.4Q268.2 128.5 269.0 129.1Q269.9 129.7 271.1 129.7ZM283.9 106.9L289.4 106.9L289.4 133.1L283.9 133.1L283.9 106.9Z M300.3 106.9L305.7 106.9L305.7 133.1L300.3 133.1L300.3 106.9ZM314.6 133.1L309.2 133.1L309.2 113.5L314.6 113.5L314.6 133.1ZM311.9 110.9L311.9 110.9Q310.7 110.9 309.8 110.1Q309.0 109.3 309.0 108.2L309.0 108.2Q309.0 107.0 309.8 106.2Q310.7 105.4 311.9 105.4L311.9 105.4Q313.1 105.4 314.0 106.2Q314.8 107.0 314.8 108.2L314.8 108.2Q314.8 109.3 314.0 110.1Q313.1 110.9 311.9 110.9ZM330.6 113.5L336.4 113.5L329.5 133.1L323.4 133.1L316.5 113.5L322.3 113.5L326.3 127.5L326.5 127.5L330.6 113.5ZM343.7 133.1L338.3 133.1L338.3 113.5L343.7 113.5L343.7 133.1ZM341.0 110.9L341.0 110.9Q339.8 110.9 338.9 110.1Q338.1 109.3 338.1 108.2L338.1 108.2Q338.1 107.0 338.9 106.2Q339.8 105.4 341.0 105.4L341.0 105.4Q342.2 105.4 343.1 106.2Q343.9 107.0 343.9 108.2L343.9 108.2Q343.9 109.3 343.1 110.1Q342.2 110.9 341.0 110.9ZM352.6 121.7L352.6 121.7L352.6 133.1L347.1 133.1L347.1 113.5L352.3 113.5L352.3 116.9L352.6 116.9Q353.2 115.2 354.8 114.2Q356.3 113.2 358.5 113.2L358.5 113.2Q360.5 113.2 362.0 114.1Q363.6 115.0 364.4 116.6Q365.3 118.3 365.3 120.6L365.3 120.6L365.3 133.1L359.8 133.1L359.8 121.6Q359.8 119.8 358.9 118.7Q358.0 117.7 356.3 117.7L356.3 117.7Q355.2 117.7 354.4 118.2Q353.5 118.7 353.1 119.6Q352.6 120.5 352.6 121.7ZM377.5 140.9L377.5 140.9Q374.8 140.9 372.9 140.1Q371.1 139.4 370.0 138.2Q368.8 136.9 368.5 135.4L368.5 135.4L373.5 134.7Q373.8 135.3 374.3 135.8Q374.8 136.3 375.6 136.6Q376.4 137.0 377.6 137.0L377.6 137.0Q379.4 137.0 380.5 136.1Q381.7 135.2 381.7 133.2L381.7 133.2L381.7 129.6L381.5 129.6Q381.1 130.4 380.4 131.2Q379.7 131.9 378.6 132.3Q377.4 132.8 375.9 132.8L375.9 132.8Q373.7 132.8 371.8 131.8Q370.0 130.8 369.0 128.6Q367.9 126.5 367.9 123.2L367.9 123.2Q367.9 119.9 369.0 117.7Q370.1 115.4 371.9 114.3Q373.7 113.2 375.9 113.2L375.9 113.2Q377.5 113.2 378.6 113.8Q379.7 114.3 380.4 115.1Q381.1 116.0 381.5 116.8L381.5 116.8L381.7 116.8L381.7 113.5L387.1 113.5L387.1 133.3Q387.1 135.8 385.9 137.5Q384.6 139.2 382.5 140.0Q380.3 140.9 377.5 140.9ZM377.6 128.7L377.6 128.7Q378.9 128.7 379.8 128.1Q380.7 127.4 381.2 126.2Q381.7 124.9 381.7 123.2L381.7 123.2Q381.7 121.5 381.2 120.2Q380.8 118.9 379.8 118.2Q378.9 117.5 377.6 117.5L377.6 117.5Q376.3 117.5 375.3 118.3Q374.4 119.0 373.9 120.3Q373.5 121.5 373.5 123.2L373.5 123.2Q373.5 124.9 373.9 126.1Q374.4 127.4 375.3 128.0Q376.3 128.7 377.6 128.7Z "/><mask id="satori_om-id-0-0-1"><rect x="500" y="75" width="268" height="50" fill="#fff"/></mask><mask id="satori_ms-id-0-0-1-0-1" maskUnits="userSpaceOnUse"><rect x="0" y="0" width="800" height="200" fill="#fff"/><path x="500" y="75" width="128" height="50" fill="#000"  stroke-width="-2" d="M506,75 h116 a6,6 0 0 1 6,6 v38 a6,6 0 0 1 -6,6 h-116 a6,6 0 0 1 -6,-6 v-38 a6,6 0 0 1 6,-6"/></mask><mask id="satori_ms-id-0-0-1-0-1-neg" maskUnits="userSpaceOnUse"><path x="500" y="76" width="128" height="50" fill="#fff" stroke="#000" stroke-width="2" d="M506,76 h116 a6,6 0 0 1 6,6 v38 a6,6 0 0 1 -6,6 h-116 a6,6 0 0 1 -6,-6 v-38 a6,6 0 0 1 6,-6"/></mask><defs><filter id="satori_s-id-0-0-1-0-1" x="0%" y="0%" width="100%" height="100%"><feGaussianBlur stdDeviation="1" result="b"/><feFlood flood-color="rgba(0, 0, 0, 0.1)" in="SourceGraphic" result="f"/><feComposite in="f" in2="b" operator="in"/></filter></defs><g mask="url(#satori_ms-id-0-0-1-0-1)" filter="url(#satori_s-id-0-0-1-0-1)" opacity="1"><g mask="url(#satori_ms-id-0-0-1-0-1-neg)"><path x="500" y="76" width="128" height="50" fill="#fff" stroke="#fff" stroke-width="-2" d="M506,76 h116 a6,6 0 0 1 6,6 v38 a6,6 0 0 1 -6,6 h-116 a6,6 0 0 1 -6,-6 v-38 a6,6 0 0 1 6,-6"/></g></g><mask id="satori_ms-id-0-0-1-0-0" maskUnits="userSpaceOnUse"><rect x="0" y="0" width="800" height="200" fill="#fff"/><path x="500" y="75" width="128" height="50" fill="#000"  stroke-width="0" d="M506,75 h116 a6,6 0 0 1 6,6 v38 a6,6 0 0 1 -6,6 h-116 a6,6 0 0 1 -6,-6 v-38 a6,6 0 0 1 6,-6"/></mask><defs><filter id="satori_s-id-0-0-1-0-0" x="-1.7578125%" y="-4.5%" width="103.515625%" height="109.00000000000001%"><feGaussianBlur stdDeviation="1.5" result="b"/><feFlood flood-color="rgba(0, 0, 0, 0.1)" in="SourceGraphic" result="f"/><feComposite in="f" in2="b" operator="in"/></filter></defs><g mask="url(#satori_ms-id-0-0-1-0-0)" filter="url(#satori_s-id-0-0-1-0-0)" opacity="1"><path x="500" y="76" width="128" height="50" fill="#fff" stroke="#fff" stroke-width="0" d="M506,76 h116 a6,6 0 0 1 6,6 v38 a6,6 0 0 1 -6,6 h-116 a6,6 0 0 1 -6,-6 v-38 a6,6 0 0 1 6,-6"/></g><mask id="satori_om-id-0-0-1-0"><rect x="500" y="75" width="128" height="50" fill="#fff"/></mask><defs><clipPath id="satori_bc-id-0-0-1-0-0"><path x="500" y="75" width="128" height="50" d="M506,75 h116 a6,6 0 0 1 6,6 v38 a6,6 0 0 1 -6,6 h-116 a6,6 0 0 1 -6,-6 v-38 a6,6 0 0 1 6,-6"/></clipPath></defs><mask id="satori_om-id-0-0-1-0-0"><rect x="501" y="76" width="126" height="48" fill="#fff"/><path width="128" height="50" fill="none" stroke="#000" stroke-width="2" d="M501.757,76.757 A6,6 0 0 1 506,75 h116 a6,6 0 0 1 6,6 v38 a6,6 0 0 1 -6,6 h-116 a6,6 0 0 1 -6,-6 v-38 A6,6 0 0 1 501.757,76.757"/></mask><path x="500" y="75" width="128" height="50" fill="#0969da" d="M506,75 h116 a6,6 0 0 1 6,6 v38 a6,6 0 0 1 -6,6 h-116 a6,6 0 0 1 -6,-6 v-38 a6,6 0 0 1 6,-6"/><path width="128" height="50" clip-path="url(#satori_bc-id-0-0-1-0-0)" fill="none" stroke="transparent" stroke-width="2" d="M501.757,76.757 A6,6 0 0 1 506,75 h116 a6,6 0 0 1 6,6 v38 a6,6 0 0 1 -6,6 h-116 a6,6 0 0 1 -6,-6 v-38 A6,6 0 0 1 501.757,76.757"/><path fill="#fff" d="M531.8 97.8L530.4 97.8Q530.2 97.2 529.9 96.8Q529.6 96.3 529.2 96.0Q528.7 95.7 528.2 95.5Q527.7 95.3 527.0 95.3L527.0 95.3Q526.0 95.3 525.2 95.9Q524.3 96.4 523.8 97.4Q523.3 98.5 523.3 100L523.3 100Q523.3 101.5 523.8 102.6Q524.3 103.6 525.2 104.1Q526.1 104.7 527.1 104.7L527.1 104.7Q528.1 104.7 528.9 104.2Q529.7 103.8 530.1 103.0Q530.5 102.2 530.5 101.2L530.5 101.2L531.0 101.3L527.5 101.3L527.5 100L531.9 100L531.9 101.3Q531.9 102.7 531.3 103.8Q530.7 104.8 529.6 105.4Q528.5 106.0 527.1 106.0L527.1 106.0Q525.6 106.0 524.4 105.3Q523.3 104.5 522.6 103.2Q522.0 101.8 522.0 100L522.0 100Q522.0 98.6 522.3 97.5Q522.7 96.4 523.4 95.6Q524.1 94.9 525.0 94.4Q525.9 94.0 527.0 94.0L527.0 94.0Q528.0 94.0 528.8 94.3Q529.6 94.6 530.2 95.1Q530.8 95.6 531.2 96.3Q531.7 97.0 531.8 97.8L531.8 97.8ZM537.8 106L537.8 106Q536.5 106 535.6 105.4Q534.7 104.9 534.2 103.9Q533.7 102.9 533.7 101.5L533.7 101.5Q533.7 100.2 534.2 99.2Q534.7 98.1 535.6 97.6Q536.5 97.0 537.6 97.0L537.6 97.0Q538.3 97.0 539.0 97.2Q539.6 97.4 540.2 97.9Q540.7 98.4 541.1 99.3Q541.4 100.1 541.4 101.3L541.4 101.3L541.4 101.9L534.7 101.9L534.7 100.8L540.0 100.8Q540.0 100.0 539.7 99.4Q539.4 98.9 538.9 98.5Q538.4 98.2 537.6 98.2L537.6 98.2Q536.8 98.2 536.3 98.6Q535.7 99.0 535.4 99.6Q535.0 100.2 535.0 101.0L535.0 101.0L535.0 101.7Q535.0 102.7 535.4 103.4Q535.7 104.1 536.3 104.4Q537.0 104.8 537.8 104.8L537.8 104.8Q538.3 104.8 538.7 104.6Q539.2 104.5 539.5 104.2Q539.8 103.9 540.0 103.4L540.0 103.4L541.3 103.8Q541.0 104.5 540.6 105.0Q540.1 105.4 539.4 105.7Q538.7 106 537.8 106ZM542.7 97.1L547.2 97.1L547.2 98.2L542.7 98.2L542.7 97.1ZM544.0 103.7L544.0 95L545.4 95L545.4 103.3Q545.4 103.9 545.5 104.2Q545.7 104.4 546.0 104.5Q546.2 104.6 546.5 104.6L546.5 104.6Q546.7 104.6 546.9 104.6Q547.0 104.6 547.1 104.6L547.1 104.6L547.4 105.8Q547.3 105.8 547.0 105.9Q546.8 105.9 546.4 105.9L546.4 105.9Q545.8 105.9 545.3 105.7Q544.7 105.4 544.4 104.9Q544.0 104.4 544.0 103.7L544.0 103.7Z M559.9 99.0L559.9 99.0L558.7 99.4Q558.6 99.1 558.4 98.8Q558.2 98.5 557.8 98.3Q557.4 98.1 556.8 98.1L556.8 98.1Q556.0 98.1 555.5 98.5Q555.0 98.9 555.0 99.4L555.0 99.4Q555.0 99.9 555.3 100.2Q555.7 100.5 556.5 100.7L556.5 100.7L557.8 101.0Q558.9 101.3 559.5 101.9Q560.1 102.5 560.1 103.4L560.1 103.4Q560.1 104.1 559.7 104.7Q559.2 105.3 558.5 105.7Q557.7 106 556.7 106L556.7 106Q555.3 106 554.5 105.4Q553.6 104.8 553.4 103.7L553.4 103.7L554.6 103.4Q554.8 104.1 555.3 104.5Q555.8 104.8 556.7 104.8L556.7 104.8Q557.6 104.8 558.2 104.4Q558.7 104.0 558.7 103.5L558.7 103.5Q558.7 103 558.4 102.7Q558.1 102.4 557.4 102.2L557.4 102.2L556.0 101.9Q554.8 101.6 554.2 101.0Q553.6 100.4 553.6 99.5L553.6 99.5Q553.6 98.8 554.1 98.2Q554.5 97.6 555.2 97.3Q555.9 97.0 556.8 97.0L556.8 97.0Q558.1 97.0 558.9 97.5Q559.6 98.1 559.9 99.0ZM561.4 97.1L565.9 97.1L565.9 98.2L561.4 98.2L561.4 97.1ZM562.7 103.7L562.7 95L564.0 95L564.0 103.3Q564.0 103.9 564.2 104.2Q564.4 104.4 564.6 104.5Q564.9 104.6 565.2 104.6L565.2 104.6Q565.4 104.6 565.6 104.6Q565.7 104.6 565.8 104.6L565.8 104.6L566.1 105.8Q565.9 105.8 565.7 105.9Q565.4 105.9 565.1 105.9L565.1 105.9Q564.5 105.9 564.0 105.7Q563.4 105.4 563.1 104.9Q562.7 104.4 562.7 103.7L562.7 103.7ZM570.5 106.0L570.5 106.0Q569.7 106.0 569.0 105.7Q568.3 105.4 567.9 104.8Q567.5 104.2 567.5 103.3L567.5 103.3Q567.5 102.6 567.8 102.1Q568.1 101.7 568.6 101.4Q569.1 101.1 569.7 101.0Q570.3 100.9 570.9 100.8L570.9 100.8Q571.7 100.7 572.2 100.6Q572.7 100.6 572.9 100.4Q573.2 100.3 573.2 100.0L573.2 100.0L573.2 99.9Q573.2 99.1 572.7 98.6Q572.2 98.2 571.3 98.2L571.3 98.2Q570.4 98.2 569.8 98.6Q569.3 99 569.0 99.5L569.0 99.5L567.8 99.0Q568.1 98.2 568.7 97.8Q569.3 97.3 569.9 97.2Q570.6 97.0 571.3 97.0L571.3 97.0Q571.7 97.0 572.2 97.1Q572.8 97.2 573.3 97.5Q573.8 97.8 574.2 98.4Q574.5 99.0 574.5 100.1L574.5 100.1L574.5 105.8L573.2 105.8L573.2 104.6L573.1 104.6Q573.0 104.9 572.6 105.2Q572.3 105.6 571.8 105.8Q571.3 106.0 570.5 106.0ZM570.7 104.8L570.7 104.8Q571.5 104.8 572.0 104.5Q572.6 104.2 572.9 103.7Q573.2 103.2 573.2 102.7L573.2 102.7L573.2 101.4Q573.1 101.5 572.8 101.6Q572.5 101.7 572.1 101.8Q571.8 101.8 571.4 101.9Q571.1 101.9 570.8 101.9L570.8 101.9Q570.3 102 569.9 102.2Q569.4 102.3 569.1 102.6Q568.9 102.9 568.9 103.4L568.9 103.4Q568.9 104.1 569.4 104.5Q569.9 104.8 570.7 104.8ZM578.3 105.8L577.0 105.8L577.0 97.1L578.3 97.1L578.3 98.4L578.3 98.4Q578.6 97.8 579.2 97.4Q579.8 97.0 580.6 97.0L580.6 97.0Q580.8 97.0 581.0 97.0Q581.2 97.0 581.3 97.0L581.3 97.0L581.3 98.3Q581.3 98.3 581.0 98.3Q580.8 98.3 580.5 98.3L580.5 98.3Q579.9 98.3 579.4 98.5Q578.9 98.8 578.6 99.2Q578.3 99.7 578.3 100.3L578.3 100.3L578.3 105.8ZM582.7 97.1L587.3 97.1L587.3 98.2L582.7 98.2L582.7 97.1ZM584.0 103.7L584.0 95L585.4 95L585.4 103.3Q585.4 103.9 585.6 104.2Q585.7 104.4 586.0 104.5Q586.3 104.6 586.5 104.6L586.5 104.6Q586.8 104.6 586.9 104.6Q587.1 104.6 587.1 104.6L587.1 104.6L587.4 105.8Q587.3 105.8 587.0 105.9Q586.8 105.9 586.4 105.9L586.4 105.9Q585.8 105.9 585.3 105.7Q584.8 105.4 584.4 104.9Q584.0 104.4 584.0 103.7L584.0 103.7ZM592.8 106L592.8 106Q591.6 106 590.7 105.4Q589.8 104.9 589.3 103.9Q588.8 102.9 588.8 101.5L588.8 101.5Q588.8 100.2 589.3 99.2Q589.8 98.1 590.6 97.6Q591.5 97.0 592.7 97.0L592.7 97.0Q593.4 97.0 594.1 97.2Q594.7 97.4 595.3 97.9Q595.8 98.4 596.1 99.3Q596.5 100.1 596.5 101.3L596.5 101.3L596.5 101.9L589.7 101.9L589.7 100.8L595.1 100.8Q595.1 100.0 594.8 99.4Q594.5 98.9 594.0 98.5Q593.4 98.2 592.7 98.2L592.7 98.2Q591.9 98.2 591.3 98.6Q590.7 99.0 590.4 99.6Q590.1 100.2 590.1 101.0L590.1 101.0L590.1 101.7Q590.1 102.7 590.5 103.4Q590.8 104.1 591.4 104.4Q592.0 104.8 592.8 104.8L592.8 104.8Q593.4 104.8 593.8 104.6Q594.2 104.5 594.5 104.2Q594.9 103.9 595.0 103.4L595.0 103.4L596.3 103.8Q596.1 104.5 595.6 105.0Q595.1 105.4 594.4 105.7Q593.7 106 592.8 106ZM601.8 106L601.8 106Q600.7 106 599.9 105.4Q599.0 104.9 598.6 103.9Q598.1 102.9 598.1 101.5L598.1 101.5Q598.1 100.1 598.6 99.1Q599.0 98.1 599.9 97.5Q600.7 97.0 601.8 97.0L601.8 97.0Q602.7 97.0 603.2 97.3Q603.7 97.5 603.9 97.9Q604.2 98.3 604.3 98.5L604.3 98.5L604.5 98.5L604.5 94.2L605.8 94.2L605.8 105.8L604.5 105.8L604.5 104.5L604.3 104.5Q604.2 104.7 603.9 105.1Q603.6 105.4 603.1 105.7Q602.6 106 601.8 106ZM602.0 104.8L602.0 104.8Q602.8 104.8 603.3 104.4Q603.9 103.9 604.2 103.2Q604.5 102.4 604.5 101.5L604.5 101.5Q604.5 100.5 604.2 99.7Q603.9 99.0 603.4 98.6Q602.8 98.2 602.0 98.2L602.0 98.2Q601.1 98.2 600.6 98.6Q600.0 99.1 599.7 99.8Q599.4 100.5 599.4 101.5L599.4 101.5Q599.4 102.4 599.7 103.1Q600.0 103.9 600.6 104.3Q601.1 104.8 602.0 104.8Z "/><mask id="satori_ms-id-0-0-1-1-1" maskUnits="userSpaceOnUse"><rect x="0" y="0" width="800" height="200" fill="#fff"/><path x="640" y="75" width="128" height="50" fill="#000"  stroke-width="-2" d="M646,75 h116 a6,6 0 0 1 6,6 v38 a6,6 0 0 1 -6,6 h-116 a6,6 0 0 1 -6,-6 v-38 a6,6 0 0 1 6,-6"/></mask><mask id="satori_ms-id-0-0-1-1-1-neg" maskUnits="userSpaceOnUse"><path x="640" y="76" width="128" height="50" fill="#fff" stroke="#000" stroke-width="2" d="M646,76 h116 a6,6 0 0 1 6,6 v38 a6,6 0 0 1 -6,6 h-116 a6,6 0 0 1 -6,-6 v-38 a6,6 0 0 1 6,-6"/></mask><defs><filter id="satori_s-id-0-0-1-1-1" x="0%" y="0%" width="100%" height="100%"><feGaussianBlur stdDeviation="1" result="b"/><feFlood flood-color="rgba(0, 0, 0, 0.1)" in="SourceGraphic" result="f"/><feComposite in="f" in2="b" operator="in"/></filter></defs><g mask="url(#satori_ms-id-0-0-1-1-1)" filter="url(#satori_s-id-0-0-1-1-1)" opacity="1"><g mask="url(#satori_ms-id-0-0-1-1-1-neg)"><path x="640" y="76" width="128" height="50" fill="#fff" stroke="#fff" stroke-width="-2" d="M646,76 h116 a6,6 0 0 1 6,6 v38 a6,6 0 0 1 -6,6 h-116 a6,6 0 0 1 -6,-6 v-38 a6,6 0 0 1 6,-6"/></g></g><mask id="satori_ms-id-0-0-1-1-0" maskUnits="userSpaceOnUse"><rect x="0" y="0" width="800" height="200" fill="#fff"/><path x="640" y="75" width="128" height="50" fill="#000"  stroke-width="0" d="M646,75 h116 a6,6 0 0 1 6,6 v38 a6,6 0 0 1 -6,6 h-116 a6,6 0 0 1 -6,-6 v-38 a6,6 0 0 1 6,-6"/></mask><defs><filter id="satori_s-id-0-0-1-1-0" x="-1.7578125%" y="-4.5%" width="103.515625%" height="109.00000000000001%"><feGaussianBlur stdDeviation="1.5" result="b"/><feFlood flood-color="rgba(0, 0, 0, 0.1)" in="SourceGraphic" result="f"/><feComposite in="f" in2="b" operator="in"/></filter></defs><g mask="url(#satori_ms-id-0-0-1-1-0)" filter="url(#satori_s-id-0-0-1-1-0)" opacity="1"><path x="640" y="76" width="128" height="50" fill="#fff" stroke="#fff" stroke-width="0" d="M646,76 h116 a6,6 0 0 1 6,6 v38 a6,6 0 0 1 -6,6 h-116 a6,6 0 0 1 -6,-6 v-38 a6,6 0 0 1 6,-6"/></g><mask id="satori_om-id-0-0-1-1"><rect x="640" y="75" width="128" height="50" fill="#fff"/></mask><defs><clipPath id="satori_bc-id-0-0-1-1-0"><path x="640" y="75" width="128" height="50" d="M646,75 h116 a6,6 0 0 1 6,6 v38 a6,6 0 0 1 -6,6 h-116 a6,6 0 0 1 -6,-6 v-38 a6,6 0 0 1 6,-6"/></clipPath></defs><mask id="satori_om-id-0-0-1-1-0"><rect x="641" y="76" width="126" height="48" fill="#fff"/><path width="128" height="50" fill="none" stroke="#000" stroke-width="2" d="M641.757,76.757 A6,6 0 0 1 646,75 h116 a6,6 0 0 1 6,6 v38 a6,6 0 0 1 -6,6 h-116 a6,6 0 0 1 -6,-6 v-38 A6,6 0 0 1 641.757,76.757"/></mask><path x="640" y="75" width="128" height="50" fill="#fff" d="M646,75 h116 a6,6 0 0 1 6,6 v38 a6,6 0 0 1 -6,6 h-116 a6,6 0 0 1 -6,-6 v-38 a6,6 0 0 1 6,-6"/><path width="128" height="50" clip-path="url(#satori_bc-id-0-0-1-1-0)" fill="none" stroke="transparent" stroke-width="2" d="M641.757,76.757 A6,6 0 0 1 646,75 h116 a6,6 0 0 1 6,6 v38 a6,6 0 0 1 -6,6 h-116 a6,6 0 0 1 -6,-6 v-38 A6,6 0 0 1 641.757,76.757"/><path fill="#0969da" d="M669.2 105.8L662.4 105.8L662.4 94.2L663.8 94.2L663.8 104.6L669.2 104.6L669.2 105.8ZM674.9 106L674.9 106Q673.6 106 672.7 105.4Q671.8 104.9 671.3 103.9Q670.8 102.9 670.8 101.5L670.8 101.5Q670.8 100.2 671.3 99.2Q671.8 98.1 672.7 97.6Q673.6 97.0 674.8 97.0L674.8 97.0Q675.4 97.0 676.1 97.2Q676.8 97.4 677.3 97.9Q677.9 98.4 678.2 99.3Q678.5 100.1 678.5 101.3L678.5 101.3L678.5 101.9L671.8 101.9L671.8 100.8L677.1 100.8Q677.1 100.0 676.8 99.4Q676.6 98.9 676.0 98.5Q675.5 98.2 674.8 98.2L674.8 98.2Q673.9 98.2 673.4 98.6Q672.8 99.0 672.5 99.6Q672.2 100.2 672.2 101.0L672.2 101.0L672.2 101.7Q672.2 102.7 672.5 103.4Q672.8 104.1 673.5 104.4Q674.1 104.8 674.9 104.8L674.9 104.8Q675.4 104.8 675.8 104.6Q676.3 104.5 676.6 104.2Q676.9 103.9 677.1 103.4L677.1 103.4L678.4 103.8Q678.2 104.5 677.7 105.0Q677.2 105.4 676.5 105.7Q675.8 106 674.9 106ZM683.1 106.0L683.1 106.0Q682.3 106.0 681.6 105.7Q680.9 105.4 680.5 104.8Q680.1 104.2 680.1 103.3L680.1 103.3Q680.1 102.6 680.4 102.1Q680.7 101.7 681.2 101.4Q681.7 101.1 682.3 101.0Q682.9 100.9 683.5 100.8L683.5 100.8Q684.3 100.7 684.8 100.6Q685.3 100.6 685.5 100.4Q685.8 100.3 685.8 100.0L685.8 100.0L685.8 99.9Q685.8 99.1 685.3 98.6Q684.9 98.2 683.9 98.2L683.9 98.2Q683.0 98.2 682.4 98.6Q681.9 99 681.7 99.5L681.7 99.5L680.4 99.0Q680.7 98.2 681.3 97.8Q681.9 97.3 682.5 97.2Q683.2 97.0 683.9 97.0L683.9 97.0Q684.3 97.0 684.9 97.1Q685.4 97.2 685.9 97.5Q686.4 97.8 686.8 98.4Q687.1 99.0 687.1 100.1L687.1 100.1L687.1 105.8L685.8 105.8L685.8 104.6L685.7 104.6Q685.6 104.9 685.3 105.2Q684.9 105.6 684.4 105.8Q683.9 106.0 683.1 106.0ZM683.3 104.8L683.3 104.8Q684.1 104.8 684.7 104.5Q685.2 104.2 685.5 103.7Q685.8 103.2 685.8 102.7L685.8 102.7L685.8 101.4Q685.7 101.5 685.4 101.6Q685.1 101.7 684.7 101.8Q684.4 101.8 684.0 101.9Q683.7 101.9 683.5 101.9L683.5 101.9Q682.9 102 682.5 102.2Q682.0 102.3 681.8 102.6Q681.5 102.9 681.5 103.4L681.5 103.4Q681.5 104.1 682.0 104.5Q682.5 104.8 683.3 104.8ZM690.9 105.8L689.6 105.8L689.6 97.1L690.9 97.1L690.9 98.4L691.0 98.4Q691.2 97.8 691.8 97.4Q692.4 97.0 693.2 97.0L693.2 97.0Q693.4 97.0 693.6 97.0Q693.8 97.0 693.9 97.0L693.9 97.0L693.9 98.3Q693.9 98.3 693.6 98.3Q693.4 98.3 693.1 98.3L693.1 98.3Q692.5 98.3 692.0 98.5Q691.5 98.8 691.2 99.2Q690.9 99.7 690.9 100.3L690.9 100.3L690.9 105.8ZM696.9 100.6L696.9 100.6L696.9 105.8L695.5 105.8L695.5 97.1L696.8 97.1L696.8 98.5L696.9 98.5Q697.2 97.8 697.9 97.4Q698.5 97.0 699.5 97.0L699.5 97.0Q700.4 97.0 701.0 97.3Q701.7 97.7 702.1 98.4Q702.4 99.2 702.4 100.3L702.4 100.3L702.4 105.8L701.1 105.8L701.1 100.4Q701.1 99.3 700.6 98.8Q700.0 98.2 699.1 98.2L699.1 98.2Q698.4 98.2 697.9 98.5Q697.4 98.7 697.2 99.3Q696.9 99.8 696.9 100.6Z M710.7 105.8L709.4 105.8L709.4 97.1L710.7 97.1L710.7 98.5L710.8 98.5Q711.1 97.8 711.7 97.4Q712.3 97.0 713.1 97.0L713.1 97.0Q714 97.0 714.6 97.4Q715.2 97.8 715.5 98.5L715.5 98.5L715.6 98.5Q715.9 97.8 716.6 97.4Q717.2 97.0 718.2 97.0L718.2 97.0Q719.4 97.0 720.1 97.7Q720.8 98.4 720.8 100.0L720.8 100.0L720.8 105.8L719.5 105.8L719.5 100.0Q719.5 99.0 719.0 98.6Q718.4 98.2 717.7 98.2L717.7 98.2Q716.8 98.2 716.3 98.7Q715.8 99.3 715.8 100.1L715.8 100.1L715.8 105.8L714.4 105.8L714.4 99.8Q714.4 99.1 713.9 98.6Q713.5 98.2 712.7 98.2L712.7 98.2Q712.2 98.2 711.7 98.5Q711.3 98.7 711.0 99.2Q710.7 99.7 710.7 100.4L710.7 100.4L710.7 105.8ZM726.8 106L726.8 106Q725.7 106 724.8 105.4Q723.9 104.9 723.4 103.9Q722.9 102.9 722.9 101.5L722.9 101.5Q722.9 100.1 723.4 99.1Q723.9 98.1 724.8 97.5Q725.7 97.0 726.8 97.0L726.8 97.0Q728.0 97.0 728.9 97.5Q729.8 98.1 730.3 99.1Q730.8 100.1 730.8 101.5L730.8 101.5Q730.8 102.9 730.3 103.9Q729.8 104.9 728.9 105.4Q728.0 106 726.8 106ZM726.8 104.8L726.8 104.8Q727.7 104.8 728.3 104.3Q728.9 103.9 729.2 103.1Q729.5 102.4 729.5 101.5L729.5 101.5Q729.5 100.6 729.2 99.9Q728.9 99.1 728.3 98.6Q727.7 98.2 726.8 98.2L726.8 98.2Q725.9 98.2 725.4 98.6Q724.8 99.1 724.5 99.9Q724.2 100.6 724.2 101.5L724.2 101.5Q724.2 102.4 724.5 103.1Q724.8 103.9 725.4 104.3Q725.9 104.8 726.8 104.8ZM734.2 105.8L732.8 105.8L732.8 97.1L734.1 97.1L734.1 98.4L734.2 98.4Q734.5 97.8 735.1 97.4Q735.7 97.0 736.5 97.0L736.5 97.0Q736.6 97.0 736.9 97.0Q737.1 97.0 737.2 97.0L737.2 97.0L737.2 98.3Q737.1 98.3 736.9 98.3Q736.7 98.3 736.4 98.3L736.4 98.3Q735.7 98.3 735.3 98.5Q734.8 98.8 734.5 99.2Q734.2 99.7 734.2 100.3L734.2 100.3L734.2 105.8ZM742.2 106L742.2 106Q740.9 106 740.0 105.4Q739.1 104.9 738.6 103.9Q738.1 102.9 738.1 101.5L738.1 101.5Q738.1 100.2 738.6 99.2Q739.1 98.1 740.0 97.6Q740.9 97.0 742.0 97.0L742.0 97.0Q742.7 97.0 743.4 97.2Q744.1 97.4 744.6 97.9Q745.1 98.4 745.5 99.3Q745.8 100.1 745.8 101.3L745.8 101.3L745.8 101.9L739.1 101.9L739.1 100.8L744.4 100.8Q744.4 100.0 744.1 99.4Q743.8 98.9 743.3 98.5Q742.8 98.2 742.0 98.2L742.0 98.2Q741.2 98.2 740.7 98.6Q740.1 99.0 739.8 99.6Q739.5 100.2 739.5 101.0L739.5 101.0L739.5 101.7Q739.5 102.7 739.8 103.4Q740.1 104.1 740.8 104.4Q741.4 104.8 742.2 104.8L742.2 104.8Q742.7 104.8 743.1 104.6Q743.6 104.5 743.9 104.2Q744.2 103.9 744.4 103.4L744.4 103.4L745.7 103.8Q745.5 104.5 745.0 105.0Q744.5 105.4 743.8 105.7Q743.1 106 742.2 106Z "/></svg>